<mxfile host="65bd71144e" pages="2">
    <diagram id="2aBG-r3wPyCUKRb70Wu3" name="Page-1">
        <mxGraphModel dx="963" dy="742" grid="1" gridSize="10" guides="1" tooltips="1" connect="1" arrows="1" fold="1" page="0" pageScale="1" pageWidth="1100" pageHeight="850" math="0" shadow="0">
            <root>
                <mxCell id="0"/>
                <mxCell id="1" parent="0"/>
                <mxCell id="vJRdNtJOz0o6pJyjy7EN-1" value="" style="strokeWidth=2;html=1;shape=mxgraph.flowchart.decision;whiteSpace=wrap;fontSize=16;" parent="1" vertex="1">
                    <mxGeometry x="350" y="270" width="100" height="100" as="geometry"/>
                </mxCell>
                <mxCell id="vJRdNtJOz0o6pJyjy7EN-3" value="&lt;span style=&quot;font-family: &amp;quot;Google Sans Text&amp;quot;, Roboto, sans-serif;&quot;&gt;Identify the rows and columns&lt;/span&gt;" style="text;html=1;strokeColor=none;fillColor=none;align=left;verticalAlign=middle;whiteSpace=wrap;rounded=0;fontSize=16;labelBackgroundColor=none;fontColor=default;" parent="1" vertex="1">
                    <mxGeometry x="480" y="190" width="320" height="20" as="geometry"/>
                </mxCell>
                <mxCell id="vJRdNtJOz0o6pJyjy7EN-4" value="" style="strokeWidth=2;html=1;shape=mxgraph.flowchart.decision;whiteSpace=wrap;fontSize=16;" parent="1" vertex="1">
                    <mxGeometry x="350" y="430" width="100" height="100" as="geometry"/>
                </mxCell>
                <mxCell id="vJRdNtJOz0o6pJyjy7EN-8" value="&lt;span style=&quot;font-family: &amp;quot;Google Sans Text&amp;quot;, Roboto, sans-serif;&quot;&gt;Does the layout include a grid?&lt;/span&gt;" style="text;html=1;strokeColor=none;fillColor=none;align=left;verticalAlign=middle;whiteSpace=wrap;rounded=0;fontSize=16;labelBackgroundColor=none;fontColor=default;" parent="1" vertex="1">
                    <mxGeometry x="480" y="310" width="300" height="20" as="geometry"/>
                </mxCell>
                <mxCell id="vJRdNtJOz0o6pJyjy7EN-9" value="&lt;span style=&quot;font-family: &amp;quot;Google Sans Text&amp;quot;, Roboto, sans-serif;&quot;&gt;Are there overlapping elements?&lt;/span&gt;" style="text;html=1;strokeColor=none;fillColor=none;align=left;verticalAlign=middle;whiteSpace=wrap;rounded=0;fontSize=16;labelBackgroundColor=none;fontColor=default;" parent="1" vertex="1">
                    <mxGeometry x="480" y="470" width="300" height="20" as="geometry"/>
                </mxCell>
                <mxCell id="vJRdNtJOz0o6pJyjy7EN-10" value="" style="strokeWidth=2;html=1;shape=mxgraph.flowchart.decision;whiteSpace=wrap;fontSize=16;" parent="1" vertex="1">
                    <mxGeometry x="350" y="590" width="100" height="100" as="geometry"/>
                </mxCell>
                <mxCell id="vJRdNtJOz0o6pJyjy7EN-11" value="&lt;span style=&quot;font-family: &amp;quot;Google Sans Text&amp;quot;, Roboto, sans-serif;&quot;&gt;Does the UI need tabs?&lt;/span&gt;" style="text;html=1;strokeColor=none;fillColor=none;align=left;verticalAlign=middle;whiteSpace=wrap;rounded=0;fontSize=16;labelBackgroundColor=none;fontColor=default;labelBorderColor=none;" parent="1" vertex="1">
                    <mxGeometry x="480" y="630" width="300" height="20" as="geometry"/>
                </mxCell>
                <mxCell id="vJRdNtJOz0o6pJyjy7EN-13" value="&lt;span style=&quot;font-family: &amp;quot;Google Sans Text&amp;quot;, Roboto, sans-serif;&quot;&gt;Notice areas that require alignment, padding, or borders&lt;/span&gt;" style="text;html=1;strokeColor=none;fillColor=none;align=left;verticalAlign=middle;whiteSpace=wrap;rounded=0;fontSize=16;labelBackgroundColor=none;fontColor=default;labelBorderColor=none;" parent="1" vertex="1">
                    <mxGeometry x="480" y="790" width="400" height="20" as="geometry"/>
                </mxCell>
                <mxCell id="vJRdNtJOz0o6pJyjy7EN-14" value="" style="rounded=1;whiteSpace=wrap;html=1;absoluteArcSize=1;arcSize=14;strokeWidth=2;labelBackgroundColor=none;labelBorderColor=none;fontSize=16;fontColor=default;" parent="1" vertex="1">
                    <mxGeometry x="360" y="160" width="80" height="80" as="geometry"/>
                </mxCell>
                <mxCell id="vJRdNtJOz0o6pJyjy7EN-15" value="" style="rounded=1;whiteSpace=wrap;html=1;absoluteArcSize=1;arcSize=14;strokeWidth=2;labelBackgroundColor=none;labelBorderColor=none;fontSize=16;fontColor=default;" parent="1" vertex="1">
                    <mxGeometry x="360" y="760" width="80" height="80" as="geometry"/>
                </mxCell>
                <mxCell id="P2dH3SZTzllve8o88Glf-7" style="edgeStyle=none;curved=1;rounded=0;orthogonalLoop=1;jettySize=auto;html=1;exitX=0.5;exitY=1;exitDx=0;exitDy=0;exitPerimeter=0;entryX=0.5;entryY=0;entryDx=0;entryDy=0;fontSize=12;endArrow=classicThin;startSize=14;endSize=14;sourcePerimeterSpacing=8;targetPerimeterSpacing=8;strokeWidth=2;labelBackgroundColor=none;fontFamily=Lucida Console;endFill=0;" parent="1" source="P2dH3SZTzllve8o88Glf-1" target="P2dH3SZTzllve8o88Glf-2" edge="1">
                    <mxGeometry relative="1" as="geometry"/>
                </mxCell>
                <mxCell id="P2dH3SZTzllve8o88Glf-1" value="start" style="strokeWidth=2;html=1;shape=mxgraph.flowchart.start_1;whiteSpace=wrap;fontSize=16;labelBackgroundColor=none;fillColor=none;fontFamily=Lucida Console;" parent="1" vertex="1">
                    <mxGeometry x="360" y="1000" width="80" height="60" as="geometry"/>
                </mxCell>
                <mxCell id="P2dH3SZTzllve8o88Glf-3" value="return" style="strokeWidth=2;html=1;shape=mxgraph.flowchart.terminator;whiteSpace=wrap;fontSize=16;labelBackgroundColor=none;fillColor=none;fontFamily=Lucida Console;" parent="1" vertex="1">
                    <mxGeometry x="350" y="1540" width="100" height="60" as="geometry"/>
                </mxCell>
                <mxCell id="P2dH3SZTzllve8o88Glf-9" style="edgeStyle=none;curved=1;rounded=0;orthogonalLoop=1;jettySize=auto;html=1;exitX=0.5;exitY=1;exitDx=0;exitDy=0;entryX=0.5;entryY=0;entryDx=0;entryDy=0;strokeWidth=2;fontSize=12;endArrow=classicThin;startSize=14;endSize=14;sourcePerimeterSpacing=8;targetPerimeterSpacing=8;labelBackgroundColor=none;fontFamily=Lucida Console;endFill=0;" parent="1" source="P2dH3SZTzllve8o88Glf-2" target="P2dH3SZTzllve8o88Glf-10" edge="1">
                    <mxGeometry relative="1" as="geometry">
                        <mxPoint x="400" y="1240" as="targetPoint"/>
                    </mxGeometry>
                </mxCell>
                <mxCell id="P2dH3SZTzllve8o88Glf-12" style="edgeStyle=none;curved=1;rounded=0;orthogonalLoop=1;jettySize=auto;html=1;exitX=0.5;exitY=1;exitDx=0;exitDy=0;entryX=0.5;entryY=0;entryDx=0;entryDy=0;entryPerimeter=0;strokeWidth=2;fontSize=12;endArrow=classicThin;startSize=14;endSize=14;sourcePerimeterSpacing=8;targetPerimeterSpacing=8;labelBackgroundColor=none;fontFamily=Lucida Console;endFill=0;" parent="1" source="P2dH3SZTzllve8o88Glf-10" target="P2dH3SZTzllve8o88Glf-11" edge="1">
                    <mxGeometry relative="1" as="geometry"/>
                </mxCell>
                <mxCell id="P2dH3SZTzllve8o88Glf-10" value="t6 = t6 - 1" style="rounded=0;whiteSpace=wrap;html=1;strokeWidth=2;fontSize=16;labelBackgroundColor=none;fillColor=none;fontFamily=Lucida Console;" parent="1" vertex="1">
                    <mxGeometry x="320" y="1290" width="160" height="60" as="geometry"/>
                </mxCell>
                <mxCell id="P2dH3SZTzllve8o88Glf-16" style="edgeStyle=none;rounded=0;orthogonalLoop=1;jettySize=auto;html=1;exitX=0;exitY=0.5;exitDx=0;exitDy=0;exitPerimeter=0;strokeWidth=2;fontSize=12;endArrow=classicThin;startSize=14;endSize=14;sourcePerimeterSpacing=8;targetPerimeterSpacing=8;labelBackgroundColor=none;fontFamily=Lucida Console;endFill=0;" parent="1" source="P2dH3SZTzllve8o88Glf-11" edge="1">
                    <mxGeometry relative="1" as="geometry">
                        <mxPoint x="400" y="1240" as="targetPoint"/>
                        <Array as="points">
                            <mxPoint x="260" y="1440"/>
                            <mxPoint x="260" y="1240"/>
                        </Array>
                    </mxGeometry>
                </mxCell>
                <mxCell id="P2dH3SZTzllve8o88Glf-17" style="edgeStyle=none;rounded=0;orthogonalLoop=1;jettySize=auto;html=1;exitX=0.5;exitY=1;exitDx=0;exitDy=0;exitPerimeter=0;entryX=0.5;entryY=0;entryDx=0;entryDy=0;entryPerimeter=0;strokeWidth=2;fontSize=12;endArrow=classicThin;startSize=14;endSize=14;sourcePerimeterSpacing=8;targetPerimeterSpacing=8;labelBackgroundColor=none;fontFamily=Lucida Console;endFill=0;" parent="1" source="P2dH3SZTzllve8o88Glf-11" target="P2dH3SZTzllve8o88Glf-3" edge="1">
                    <mxGeometry relative="1" as="geometry"/>
                </mxCell>
                <mxCell id="P2dH3SZTzllve8o88Glf-11" value="t6 != 0?" style="strokeWidth=2;html=1;shape=mxgraph.flowchart.decision;whiteSpace=wrap;fontSize=16;labelBackgroundColor=none;fillColor=none;fontFamily=Lucida Console;" parent="1" vertex="1">
                    <mxGeometry x="320" y="1400" width="160" height="80" as="geometry"/>
                </mxCell>
                <mxCell id="P2dH3SZTzllve8o88Glf-2" value="" style="verticalLabelPosition=bottom;verticalAlign=top;html=1;shape=hexagon;perimeter=hexagonPerimeter2;arcSize=6;size=0.2;fontSize=16;strokeWidth=2;labelBackgroundColor=none;fillColor=none;fontFamily=Lucida Console;" parent="1" vertex="1">
                    <mxGeometry x="320" y="1130" width="160" height="60" as="geometry"/>
                </mxCell>
                <mxCell id="P2dH3SZTzllve8o88Glf-5" value="&lt;span style=&quot;color: rgb(240, 240, 240); font-size: 16px; font-style: normal; font-variant-ligatures: normal; font-variant-caps: normal; font-weight: 400; letter-spacing: normal; orphans: 2; text-align: center; text-indent: 0px; text-transform: none; widows: 2; word-spacing: 0px; -webkit-text-stroke-width: 0px; text-decoration-thickness: initial; text-decoration-style: initial; text-decoration-color: initial; float: none; display: inline !important;&quot;&gt;t6 = 1000&lt;/span&gt;" style="text;html=1;strokeColor=none;fillColor=none;align=center;verticalAlign=middle;whiteSpace=wrap;rounded=0;fontSize=16;labelBackgroundColor=none;fontFamily=Lucida Console;" parent="1" vertex="1">
                    <mxGeometry x="337" y="1150" width="126.00000000000001" height="20" as="geometry"/>
                </mxCell>
                <mxCell id="P2dH3SZTzllve8o88Glf-20" value="&lt;span style=&quot;color: rgb(240, 240, 240); font-size: 16px; font-style: normal; font-variant-ligatures: normal; font-variant-caps: normal; font-weight: 400; letter-spacing: normal; orphans: 2; text-align: center; text-indent: 0px; text-transform: none; widows: 2; word-spacing: 0px; -webkit-text-stroke-width: 0px; text-decoration-thickness: initial; text-decoration-style: initial; text-decoration-color: initial; float: none; display: inline !important;&quot;&gt;yes&lt;/span&gt;" style="text;html=1;strokeColor=none;fillColor=none;align=center;verticalAlign=middle;whiteSpace=wrap;rounded=0;fontSize=16;labelBackgroundColor=none;fontFamily=Lucida Console;" parent="1" vertex="1">
                    <mxGeometry x="280" y="1410" width="40" height="30" as="geometry"/>
                </mxCell>
                <mxCell id="P2dH3SZTzllve8o88Glf-21" value="&lt;span style=&quot;color: rgb(240, 240, 240); font-size: 16px; font-style: normal; font-variant-ligatures: normal; font-variant-caps: normal; font-weight: 400; letter-spacing: normal; orphans: 2; text-align: center; text-indent: 0px; text-transform: none; widows: 2; word-spacing: 0px; -webkit-text-stroke-width: 0px; text-decoration-thickness: initial; text-decoration-style: initial; text-decoration-color: initial; float: none; display: inline !important;&quot;&gt;no&lt;/span&gt;" style="text;html=1;strokeColor=none;fillColor=none;align=center;verticalAlign=middle;whiteSpace=wrap;rounded=0;fontSize=16;labelBackgroundColor=none;fontFamily=Lucida Console;" parent="1" vertex="1">
                    <mxGeometry x="360" y="1490" width="40" height="20" as="geometry"/>
                </mxCell>
                <mxCell id="P2dH3SZTzllve8o88Glf-22" style="edgeStyle=none;curved=1;rounded=0;orthogonalLoop=1;jettySize=auto;html=1;exitX=0.5;exitY=1;exitDx=0;exitDy=0;exitPerimeter=0;entryX=0.5;entryY=0;entryDx=0;entryDy=0;fontSize=12;endArrow=classicThin;startSize=14;endSize=14;sourcePerimeterSpacing=8;targetPerimeterSpacing=8;strokeWidth=2;labelBackgroundColor=none;fontFamily=Lucida Console;endFill=0;" parent="1" source="P2dH3SZTzllve8o88Glf-23" target="P2dH3SZTzllve8o88Glf-31" edge="1">
                    <mxGeometry relative="1" as="geometry"/>
                </mxCell>
                <mxCell id="P2dH3SZTzllve8o88Glf-23" value="start" style="strokeWidth=2;html=1;shape=mxgraph.flowchart.start_1;whiteSpace=wrap;fontSize=16;labelBackgroundColor=none;fillColor=none;fontFamily=Lucida Console;" parent="1" vertex="1">
                    <mxGeometry x="1600" y="1040" width="80" height="60" as="geometry"/>
                </mxCell>
                <mxCell id="P2dH3SZTzllve8o88Glf-25" style="edgeStyle=none;curved=1;rounded=0;orthogonalLoop=1;jettySize=auto;html=1;exitX=0.5;exitY=1;exitDx=0;exitDy=0;entryX=0.5;entryY=0;entryDx=0;entryDy=0;strokeWidth=2;fontSize=12;endArrow=classicThin;startSize=14;endSize=14;sourcePerimeterSpacing=8;targetPerimeterSpacing=8;labelBackgroundColor=none;fontFamily=Lucida Console;endFill=0;" parent="1" source="P2dH3SZTzllve8o88Glf-31" target="P2dH3SZTzllve8o88Glf-36" edge="1">
                    <mxGeometry relative="1" as="geometry">
                        <mxPoint x="1640" y="1280" as="targetPoint"/>
                    </mxGeometry>
                </mxCell>
                <mxCell id="P2dH3SZTzllve8o88Glf-26" style="edgeStyle=none;curved=1;rounded=0;orthogonalLoop=1;jettySize=auto;html=1;exitX=0.5;exitY=1;exitDx=0;exitDy=0;entryX=0.5;entryY=0;entryDx=0;entryDy=0;strokeWidth=2;fontSize=12;endArrow=classicThin;startSize=14;endSize=14;sourcePerimeterSpacing=8;targetPerimeterSpacing=8;labelBackgroundColor=none;fontFamily=Lucida Console;endFill=0;" parent="1" source="P2dH3SZTzllve8o88Glf-27" target="P2dH3SZTzllve8o88Glf-49" edge="1">
                    <mxGeometry relative="1" as="geometry">
                        <mxPoint x="1640" y="1640" as="targetPoint"/>
                    </mxGeometry>
                </mxCell>
                <mxCell id="P2dH3SZTzllve8o88Glf-27" value="a2 = t0" style="rounded=0;whiteSpace=wrap;html=1;strokeWidth=2;fontSize=16;labelBackgroundColor=none;fillColor=none;fontFamily=Lucida Console;" parent="1" vertex="1">
                    <mxGeometry x="1560" y="1440" width="160" height="60" as="geometry"/>
                </mxCell>
                <mxCell id="P2dH3SZTzllve8o88Glf-29" style="edgeStyle=none;rounded=0;orthogonalLoop=1;jettySize=auto;html=1;exitX=0.5;exitY=1;exitDx=0;exitDy=0;exitPerimeter=0;strokeWidth=2;fontSize=12;endArrow=classicThin;startSize=14;endSize=14;sourcePerimeterSpacing=8;targetPerimeterSpacing=8;labelBackgroundColor=none;fontFamily=Lucida Console;endFill=0;" parent="1" source="P2dH3SZTzllve8o88Glf-30" edge="1">
                    <mxGeometry relative="1" as="geometry">
                        <mxPoint x="1640" y="1280" as="targetPoint"/>
                        <Array as="points">
                            <mxPoint x="1640" y="2250"/>
                            <mxPoint x="1800" y="2250"/>
                            <mxPoint x="1800" y="1280"/>
                        </Array>
                    </mxGeometry>
                </mxCell>
                <mxCell id="P2dH3SZTzllve8o88Glf-48" style="edgeStyle=none;rounded=0;orthogonalLoop=1;jettySize=auto;html=1;exitX=0;exitY=0.5;exitDx=0;exitDy=0;exitPerimeter=0;labelBackgroundColor=none;strokeWidth=2;fontSize=12;endArrow=classicThin;startSize=14;endSize=14;sourcePerimeterSpacing=8;targetPerimeterSpacing=8;fontFamily=Lucida Console;endFill=0;" parent="1" source="P2dH3SZTzllve8o88Glf-30" edge="1">
                    <mxGeometry relative="1" as="geometry">
                        <mxPoint x="1640" y="1400" as="targetPoint"/>
                        <Array as="points">
                            <mxPoint x="1480" y="2140"/>
                            <mxPoint x="1480" y="1400"/>
                        </Array>
                    </mxGeometry>
                </mxCell>
                <mxCell id="P2dH3SZTzllve8o88Glf-30" value="t0 != a5?" style="strokeWidth=2;html=1;shape=mxgraph.flowchart.decision;whiteSpace=wrap;fontSize=16;labelBackgroundColor=none;fillColor=none;fontFamily=Lucida Console;" parent="1" vertex="1">
                    <mxGeometry x="1560" y="2100" width="160" height="80" as="geometry"/>
                </mxCell>
                <mxCell id="P2dH3SZTzllve8o88Glf-31" value="" style="verticalLabelPosition=bottom;verticalAlign=top;html=1;shape=hexagon;perimeter=hexagonPerimeter2;arcSize=6;size=0.15;fontSize=16;strokeWidth=2;labelBackgroundColor=none;fillColor=none;fontFamily=Lucida Console;" parent="1" vertex="1">
                    <mxGeometry x="1540" y="1170" width="200" height="80" as="geometry"/>
                </mxCell>
                <mxCell id="P2dH3SZTzllve8o88Glf-32" value="&lt;div style=&quot;text-align: left;&quot;&gt;&lt;span style=&quot;background-color: initial;&quot;&gt;a0 = 0x00000100&lt;/span&gt;&lt;/div&gt;&lt;span style=&quot;color: rgb(240, 240, 240); font-size: 16px; font-style: normal; font-variant-ligatures: normal; font-variant-caps: normal; font-weight: 400; letter-spacing: normal; orphans: 2; text-indent: 0px; text-transform: none; widows: 2; word-spacing: 0px; -webkit-text-stroke-width: 0px; text-decoration-thickness: initial; text-decoration-style: initial; text-decoration-color: initial; float: none; display: inline !important;&quot;&gt;&lt;div style=&quot;text-align: left;&quot;&gt;&lt;span style=&quot;background-color: initial;&quot;&gt;a1 = 0x00000000&lt;/span&gt;&lt;/div&gt;&lt;div style=&quot;text-align: left;&quot;&gt;&lt;span style=&quot;background-color: initial;&quot;&gt;t5 = 0xFF000000&lt;/span&gt;&lt;/div&gt;&lt;/span&gt;" style="text;html=1;strokeColor=none;fillColor=none;align=center;verticalAlign=middle;whiteSpace=wrap;rounded=0;fontSize=16;labelBackgroundColor=none;fontFamily=Lucida Console;" parent="1" vertex="1">
                    <mxGeometry x="1570" y="1180" width="150" height="60" as="geometry"/>
                </mxCell>
                <mxCell id="P2dH3SZTzllve8o88Glf-33" value="&lt;span style=&quot;color: rgb(240, 240, 240); font-size: 16px; font-style: normal; font-variant-ligatures: normal; font-variant-caps: normal; font-weight: 400; letter-spacing: normal; orphans: 2; text-align: center; text-indent: 0px; text-transform: none; widows: 2; word-spacing: 0px; -webkit-text-stroke-width: 0px; text-decoration-thickness: initial; text-decoration-style: initial; text-decoration-color: initial; float: none; display: inline !important;&quot;&gt;yes&lt;/span&gt;" style="text;html=1;strokeColor=none;fillColor=none;align=center;verticalAlign=middle;whiteSpace=wrap;rounded=0;fontSize=16;labelBackgroundColor=none;fontFamily=Lucida Console;" parent="1" vertex="1">
                    <mxGeometry x="1520" y="2110" width="40" height="30" as="geometry"/>
                </mxCell>
                <mxCell id="P2dH3SZTzllve8o88Glf-34" value="&lt;span style=&quot;color: rgb(240, 240, 240); font-size: 16px; font-style: normal; font-variant-ligatures: normal; font-variant-caps: normal; font-weight: 400; letter-spacing: normal; orphans: 2; text-align: center; text-indent: 0px; text-transform: none; widows: 2; word-spacing: 0px; -webkit-text-stroke-width: 0px; text-decoration-thickness: initial; text-decoration-style: initial; text-decoration-color: initial; float: none; display: inline !important;&quot;&gt;no&lt;/span&gt;" style="text;html=1;strokeColor=none;fillColor=none;align=center;verticalAlign=middle;whiteSpace=wrap;rounded=0;fontSize=16;labelBackgroundColor=none;fontFamily=Lucida Console;" parent="1" vertex="1">
                    <mxGeometry x="1600" y="2220" width="40" height="20" as="geometry"/>
                </mxCell>
                <mxCell id="P2dH3SZTzllve8o88Glf-47" style="edgeStyle=none;rounded=0;orthogonalLoop=1;jettySize=auto;html=1;exitX=0.5;exitY=1;exitDx=0;exitDy=0;entryX=0.5;entryY=0;entryDx=0;entryDy=0;labelBackgroundColor=none;strokeWidth=2;fontSize=12;endArrow=classicThin;startSize=14;endSize=14;sourcePerimeterSpacing=8;targetPerimeterSpacing=8;fontFamily=Lucida Console;endFill=0;" parent="1" source="P2dH3SZTzllve8o88Glf-36" target="P2dH3SZTzllve8o88Glf-27" edge="1">
                    <mxGeometry relative="1" as="geometry">
                        <mxPoint x="1640" y="1430" as="sourcePoint"/>
                    </mxGeometry>
                </mxCell>
                <mxCell id="P2dH3SZTzllve8o88Glf-36" value="" style="verticalLabelPosition=bottom;verticalAlign=top;html=1;shape=hexagon;perimeter=hexagonPerimeter2;arcSize=6;size=0.1;fontSize=16;strokeWidth=2;labelBackgroundColor=none;fillColor=none;fontFamily=Lucida Console;" parent="1" vertex="1">
                    <mxGeometry x="1540" y="1320" width="200" height="60" as="geometry"/>
                </mxCell>
                <mxCell id="P2dH3SZTzllve8o88Glf-37" value="&lt;span style=&quot;color: rgb(240, 240, 240); font-size: 16px; font-style: normal; font-variant-ligatures: normal; font-variant-caps: normal; font-weight: 400; letter-spacing: normal; orphans: 2; text-align: center; text-indent: 0px; text-transform: none; widows: 2; word-spacing: 0px; -webkit-text-stroke-width: 0px; text-decoration-thickness: initial; text-decoration-style: initial; text-decoration-color: initial; float: none; display: inline !important;&quot;&gt;t0 = 0x000000FF&lt;/span&gt;" style="text;html=1;strokeColor=none;fillColor=none;align=center;verticalAlign=middle;whiteSpace=wrap;rounded=0;fontSize=16;labelBackgroundColor=none;fontFamily=Lucida Console;" parent="1" vertex="1">
                    <mxGeometry x="1560" y="1340" width="160" height="20" as="geometry"/>
                </mxCell>
                <mxCell id="P2dH3SZTzllve8o88Glf-41" style="edgeStyle=none;rounded=0;orthogonalLoop=1;jettySize=auto;html=1;exitX=0.5;exitY=1;exitDx=0;exitDy=0;entryX=0.5;entryY=0;entryDx=0;entryDy=0;labelBackgroundColor=none;strokeWidth=2;fontSize=12;endArrow=classicThin;startSize=14;endSize=14;sourcePerimeterSpacing=8;targetPerimeterSpacing=8;fontFamily=Lucida Console;endFill=0;" parent="1" source="P2dH3SZTzllve8o88Glf-49" target="P2dH3SZTzllve8o88Glf-39" edge="1">
                    <mxGeometry relative="1" as="geometry">
                        <mxPoint x="1640" y="1700" as="sourcePoint"/>
                    </mxGeometry>
                </mxCell>
                <mxCell id="P2dH3SZTzllve8o88Glf-43" style="edgeStyle=none;rounded=0;orthogonalLoop=1;jettySize=auto;html=1;exitX=0.5;exitY=1;exitDx=0;exitDy=0;entryX=0.5;entryY=0;entryDx=0;entryDy=0;entryPerimeter=0;labelBackgroundColor=none;strokeWidth=2;fontSize=12;endArrow=classicThin;startSize=14;endSize=14;sourcePerimeterSpacing=8;targetPerimeterSpacing=8;fontFamily=Lucida Console;endFill=0;" parent="1" source="P2dH3SZTzllve8o88Glf-39" target="P2dH3SZTzllve8o88Glf-42" edge="1">
                    <mxGeometry relative="1" as="geometry"/>
                </mxCell>
                <mxCell id="P2dH3SZTzllve8o88Glf-39" value="ra = PC" style="rounded=0;whiteSpace=wrap;html=1;strokeWidth=2;fontSize=16;labelBackgroundColor=none;fillColor=none;fontFamily=Lucida Console;" parent="1" vertex="1">
                    <mxGeometry x="1560" y="1700" width="160" height="60" as="geometry"/>
                </mxCell>
                <mxCell id="P2dH3SZTzllve8o88Glf-45" style="edgeStyle=none;rounded=0;orthogonalLoop=1;jettySize=auto;html=1;exitX=0.5;exitY=1;exitDx=0;exitDy=0;exitPerimeter=0;entryX=0.5;entryY=0;entryDx=0;entryDy=0;labelBackgroundColor=none;strokeWidth=2;fontSize=12;endArrow=classicThin;startSize=14;endSize=14;sourcePerimeterSpacing=8;targetPerimeterSpacing=8;fontFamily=Lucida Console;endFill=0;" parent="1" source="P2dH3SZTzllve8o88Glf-42" target="P2dH3SZTzllve8o88Glf-44" edge="1">
                    <mxGeometry relative="1" as="geometry"/>
                </mxCell>
                <mxCell id="P2dH3SZTzllve8o88Glf-42" value="delay" style="strokeWidth=2;html=1;shape=mxgraph.flowchart.delay;whiteSpace=wrap;labelBackgroundColor=none;fontSize=16;fillColor=none;fontFamily=Lucida Console;" parent="1" vertex="1">
                    <mxGeometry x="1560" y="1830" width="160" height="60" as="geometry"/>
                </mxCell>
                <mxCell id="P2dH3SZTzllve8o88Glf-46" style="edgeStyle=none;rounded=0;orthogonalLoop=1;jettySize=auto;html=1;exitX=0.5;exitY=1;exitDx=0;exitDy=0;entryX=0.5;entryY=0;entryDx=0;entryDy=0;entryPerimeter=0;labelBackgroundColor=none;strokeWidth=2;fontSize=12;endArrow=classicThin;startSize=14;endSize=14;sourcePerimeterSpacing=8;targetPerimeterSpacing=8;fontFamily=Lucida Console;endFill=0;" parent="1" source="P2dH3SZTzllve8o88Glf-44" target="P2dH3SZTzllve8o88Glf-30" edge="1">
                    <mxGeometry relative="1" as="geometry"/>
                </mxCell>
                <mxCell id="P2dH3SZTzllve8o88Glf-44" value="t0 = t0 &amp;lt;&amp;lt; 8" style="rounded=0;whiteSpace=wrap;html=1;strokeWidth=2;fontSize=16;labelBackgroundColor=none;fillColor=none;fontFamily=Lucida Console;" parent="1" vertex="1">
                    <mxGeometry x="1560" y="1970" width="160" height="60" as="geometry"/>
                </mxCell>
                <mxCell id="P2dH3SZTzllve8o88Glf-49" value="ecall" style="rounded=1;whiteSpace=wrap;html=1;labelBackgroundColor=none;strokeWidth=2;fontSize=16;fillColor=none;fontFamily=Lucida Console;" parent="1" vertex="1">
                    <mxGeometry x="1560" y="1570" width="160" height="60" as="geometry"/>
                </mxCell>
                <mxCell id="23" style="edgeStyle=none;html=1;exitX=0.5;exitY=1;exitDx=0;exitDy=0;exitPerimeter=0;entryX=0.5;entryY=0;entryDx=0;entryDy=0;strokeWidth=2;fontFamily=Lucida Console;fontSize=11;endArrow=classicThin;endFill=0;startSize=14;endSize=14;" edge="1" parent="1" source="2" target="9">
                    <mxGeometry relative="1" as="geometry"/>
                </mxCell>
                <mxCell id="2" value="start" style="strokeWidth=2;html=1;shape=mxgraph.flowchart.start_1;whiteSpace=wrap;fontSize=16;labelBackgroundColor=none;fillColor=none;fontFamily=Lucida Console;" vertex="1" parent="1">
                    <mxGeometry x="1120" y="1040" width="80" height="60" as="geometry"/>
                </mxCell>
                <mxCell id="18" style="edgeStyle=none;html=1;exitX=0.5;exitY=1;exitDx=0;exitDy=0;entryX=0.5;entryY=0;entryDx=0;entryDy=0;entryPerimeter=0;strokeWidth=2;fontFamily=Lucida Console;fontSize=11;endArrow=classicThin;endFill=0;endSize=14;startSize=14;" edge="1" parent="1" source="4" target="15">
                    <mxGeometry relative="1" as="geometry"/>
                </mxCell>
                <mxCell id="4" value="ecall" style="rounded=1;whiteSpace=wrap;html=1;labelBackgroundColor=none;strokeWidth=2;fontSize=16;fillColor=none;fontFamily=Lucida Console;" vertex="1" parent="1">
                    <mxGeometry x="1080" y="1430" width="160" height="60" as="geometry"/>
                </mxCell>
                <mxCell id="8" style="edgeStyle=none;html=1;exitX=0.5;exitY=1;exitDx=0;exitDy=0;entryX=0.5;entryY=0;entryDx=0;entryDy=0;fontFamily=Lucida Console;fontSize=11;strokeWidth=2;endArrow=classicThin;endFill=0;endSize=14;startSize=14;" edge="1" parent="1" source="5" target="4">
                    <mxGeometry relative="1" as="geometry"/>
                </mxCell>
                <mxCell id="5" value="&lt;div style=&quot;text-align: left;&quot;&gt;&lt;span style=&quot;background-color: initial;&quot;&gt;a0 = 0x00000100&lt;/span&gt;&lt;/div&gt;&lt;div style=&quot;text-align: left;&quot;&gt;&lt;span style=&quot;background-color: initial;&quot;&gt;a1 = 0x00000000&lt;/span&gt;&lt;/div&gt;&lt;div style=&quot;text-align: left;&quot;&gt;&lt;span style=&quot;background-color: initial;&quot;&gt;a2 = t0&lt;/span&gt;&lt;/div&gt;" style="rounded=0;whiteSpace=wrap;html=1;strokeWidth=2;fontSize=16;labelBackgroundColor=none;fillColor=none;fontFamily=Lucida Console;" vertex="1" parent="1">
                    <mxGeometry x="1080" y="1300" width="160" height="70" as="geometry"/>
                </mxCell>
                <mxCell id="10" style="edgeStyle=none;html=1;exitX=0.5;exitY=1;exitDx=0;exitDy=0;entryX=0.5;entryY=0;entryDx=0;entryDy=0;strokeWidth=2;fontFamily=Lucida Console;fontSize=11;endArrow=classicThin;endFill=0;endSize=14;startSize=14;" edge="1" parent="1" source="9" target="5">
                    <mxGeometry relative="1" as="geometry"/>
                </mxCell>
                <mxCell id="9" value="t0 = 0x000000FF" style="rounded=0;whiteSpace=wrap;html=1;strokeWidth=2;fontSize=16;labelBackgroundColor=none;fillColor=none;fontFamily=Lucida Console;" vertex="1" parent="1">
                    <mxGeometry x="1080" y="1170" width="160" height="60" as="geometry"/>
                </mxCell>
                <mxCell id="11" value="t0 != a5?" style="strokeWidth=2;html=1;shape=mxgraph.flowchart.decision;whiteSpace=wrap;fontSize=16;labelBackgroundColor=none;fillColor=none;fontFamily=Lucida Console;" vertex="1" parent="1">
                    <mxGeometry x="1080" y="1950" width="160" height="80" as="geometry"/>
                </mxCell>
                <mxCell id="12" value="&lt;span style=&quot;color: rgb(240, 240, 240); font-size: 16px; font-style: normal; font-variant-ligatures: normal; font-variant-caps: normal; font-weight: 400; letter-spacing: normal; orphans: 2; text-align: center; text-indent: 0px; text-transform: none; widows: 2; word-spacing: 0px; -webkit-text-stroke-width: 0px; text-decoration-thickness: initial; text-decoration-style: initial; text-decoration-color: initial; float: none; display: inline !important;&quot;&gt;yes&lt;/span&gt;" style="text;html=1;strokeColor=none;fillColor=none;align=center;verticalAlign=middle;whiteSpace=wrap;rounded=0;fontSize=16;labelBackgroundColor=none;fontFamily=Lucida Console;" vertex="1" parent="1">
                    <mxGeometry x="1040" y="1960" width="40" height="30" as="geometry"/>
                </mxCell>
                <mxCell id="13" value="&lt;span style=&quot;color: rgb(240, 240, 240); font-size: 16px; font-style: normal; font-variant-ligatures: normal; font-variant-caps: normal; font-weight: 400; letter-spacing: normal; orphans: 2; text-align: center; text-indent: 0px; text-transform: none; widows: 2; word-spacing: 0px; -webkit-text-stroke-width: 0px; text-decoration-thickness: initial; text-decoration-style: initial; text-decoration-color: initial; float: none; display: inline !important;&quot;&gt;no&lt;/span&gt;" style="text;html=1;strokeColor=none;fillColor=none;align=center;verticalAlign=middle;whiteSpace=wrap;rounded=0;fontSize=16;labelBackgroundColor=none;fontFamily=Lucida Console;" vertex="1" parent="1">
                    <mxGeometry x="1120" y="2040" width="40" height="20" as="geometry"/>
                </mxCell>
                <mxCell id="14" style="edgeStyle=none;rounded=0;orthogonalLoop=1;jettySize=auto;html=1;exitX=0.5;exitY=1;exitDx=0;exitDy=0;exitPerimeter=0;entryX=0.5;entryY=0;entryDx=0;entryDy=0;labelBackgroundColor=none;strokeWidth=2;fontSize=12;endArrow=classicThin;startSize=14;endSize=14;sourcePerimeterSpacing=8;targetPerimeterSpacing=8;fontFamily=Lucida Console;endFill=0;" edge="1" source="15" target="17" parent="1">
                    <mxGeometry relative="1" as="geometry"/>
                </mxCell>
                <mxCell id="15" value="delay" style="strokeWidth=2;html=1;shape=mxgraph.flowchart.delay;whiteSpace=wrap;labelBackgroundColor=none;fontSize=16;fillColor=none;fontFamily=Lucida Console;" vertex="1" parent="1">
                    <mxGeometry x="1080" y="1560" width="160" height="60" as="geometry"/>
                </mxCell>
                <mxCell id="16" style="edgeStyle=none;rounded=0;orthogonalLoop=1;jettySize=auto;html=1;exitX=0.5;exitY=1;exitDx=0;exitDy=0;entryX=0.5;entryY=0;entryDx=0;entryDy=0;entryPerimeter=0;labelBackgroundColor=none;strokeWidth=2;fontSize=12;endArrow=classicThin;startSize=14;endSize=14;sourcePerimeterSpacing=8;targetPerimeterSpacing=8;fontFamily=Lucida Console;endFill=0;" edge="1" source="19" target="11" parent="1">
                    <mxGeometry relative="1" as="geometry">
                        <mxPoint x="1160" y="1850" as="sourcePoint"/>
                    </mxGeometry>
                </mxCell>
                <mxCell id="20" style="edgeStyle=none;html=1;exitX=0.5;exitY=1;exitDx=0;exitDy=0;entryX=0.5;entryY=0;entryDx=0;entryDy=0;strokeWidth=2;fontFamily=Lucida Console;fontSize=11;endArrow=classicThin;endFill=0;endSize=14;startSize=14;" edge="1" parent="1" source="17" target="19">
                    <mxGeometry relative="1" as="geometry"/>
                </mxCell>
                <mxCell id="17" value="t0 = t0 &amp;lt;&amp;lt; 8" style="rounded=0;whiteSpace=wrap;html=1;strokeWidth=2;fontSize=16;labelBackgroundColor=none;fillColor=none;fontFamily=Lucida Console;" vertex="1" parent="1">
                    <mxGeometry x="1080" y="1690" width="160" height="60" as="geometry"/>
                </mxCell>
                <mxCell id="19" value="t5 = 0xFF000000" style="rounded=0;whiteSpace=wrap;html=1;strokeWidth=2;fontSize=16;labelBackgroundColor=none;fillColor=none;fontFamily=Lucida Console;" vertex="1" parent="1">
                    <mxGeometry x="1080" y="1820" width="160" height="60" as="geometry"/>
                </mxCell>
                <mxCell id="21" style="edgeStyle=none;rounded=0;orthogonalLoop=1;jettySize=auto;html=1;exitX=0.5;exitY=1;exitDx=0;exitDy=0;exitPerimeter=0;strokeWidth=2;fontSize=12;endArrow=classicThin;startSize=14;endSize=14;sourcePerimeterSpacing=8;targetPerimeterSpacing=8;labelBackgroundColor=none;fontFamily=Lucida Console;endFill=0;" edge="1" parent="1" source="11">
                    <mxGeometry relative="1" as="geometry">
                        <mxPoint x="1160" y="1260" as="targetPoint"/>
                        <Array as="points">
                            <mxPoint x="1160" y="2100"/>
                            <mxPoint x="1320" y="2100"/>
                            <mxPoint x="1320" y="1260"/>
                        </Array>
                        <mxPoint x="1160" y="2040" as="sourcePoint"/>
                    </mxGeometry>
                </mxCell>
                <mxCell id="22" style="edgeStyle=none;rounded=0;orthogonalLoop=1;jettySize=auto;html=1;exitX=1;exitY=1;exitDx=0;exitDy=0;labelBackgroundColor=none;strokeWidth=2;fontSize=12;endArrow=classicThin;startSize=14;endSize=14;sourcePerimeterSpacing=8;targetPerimeterSpacing=8;fontFamily=Lucida Console;endFill=0;" edge="1" parent="1" source="12">
                    <mxGeometry relative="1" as="geometry">
                        <mxPoint x="1160" y="1130" as="targetPoint"/>
                        <Array as="points">
                            <mxPoint x="1000" y="1990"/>
                            <mxPoint x="1000" y="1130"/>
                        </Array>
                        <mxPoint x="1050" y="1730" as="sourcePoint"/>
                    </mxGeometry>
                </mxCell>
            </root>
        </mxGraphModel>
    </diagram>
    <diagram id="_4KjDbfMFbEPh_ziw32L" name="Page-2">
        <mxGraphModel dx="981" dy="587" grid="1" gridSize="10" guides="1" tooltips="1" connect="1" arrows="1" fold="1" page="0" pageScale="1" pageWidth="1100" pageHeight="850" math="0" shadow="0">
            <root>
                <mxCell id="0"/>
                <mxCell id="1" parent="0"/>
                <mxCell id="UeGreiKsR4D7_cQQjZkv-1" value="" style="rounded=1;whiteSpace=wrap;html=1;fontSize=16;" vertex="1" parent="1">
                    <mxGeometry x="380" y="390" width="120" height="60" as="geometry"/>
                </mxCell>
                <mxCell id="UeGreiKsR4D7_cQQjZkv-2" value="ggplot" style="rounded=1;whiteSpace=wrap;html=1;fontSize=16;" vertex="1" parent="1">
                    <mxGeometry x="380" y="390" width="120" height="60" as="geometry"/>
                </mxCell>
                <mxCell id="UeGreiKsR4D7_cQQjZkv-3" value="dataframe" style="ellipse;whiteSpace=wrap;html=1;fontSize=16;" vertex="1" parent="1">
                    <mxGeometry x="200" y="340" width="100" height="40" as="geometry"/>
                </mxCell>
                <mxCell id="UeGreiKsR4D7_cQQjZkv-4" value="geomes" style="ellipse;whiteSpace=wrap;html=1;fontSize=16;" vertex="1" parent="1">
                    <mxGeometry x="200" y="420" width="100" height="40" as="geometry"/>
                </mxCell>
                <mxCell id="UeGreiKsR4D7_cQQjZkv-5" value="layers" style="ellipse;whiteSpace=wrap;html=1;fontSize=16;" vertex="1" parent="1">
                    <mxGeometry x="200" y="500" width="100" height="40" as="geometry"/>
                </mxCell>
                <mxCell id="UeGreiKsR4D7_cQQjZkv-6" value="themes" style="ellipse;whiteSpace=wrap;html=1;fontSize=16;" vertex="1" parent="1">
                    <mxGeometry x="200" y="580" width="100" height="40" as="geometry"/>
                </mxCell>
            </root>
        </mxGraphModel>
    </diagram>
</mxfile>